<svg xmlns="http://www.w3.org/2000/svg" viewBox="0 0 720 480" preserveAspectRatio="xMidYMid slice">
  <defs><linearGradient id="g" x1="0" y1="0" x2="0" y2="1"><stop offset="0" stop-color="#152a3f"/><stop offset="1" stop-color="#3f7b9c"/></linearGradient>
  <radialGradient id="glow" cx=".5" cy=".5" r=".5"><stop offset="0" stop-color="#ffd166" stop-opacity=".35"/><stop offset="1" stop-color="#ffd166" stop-opacity="0"/></radialGradient></defs>
  <rect width="720" height="480" fill="url(#g)"/>
  <circle cx="360" cy="240" r="260" fill="url(#glow)"/>
  <circle cx="40" cy="40" r="1.4" fill="#fffefd" opacity=".85"/><circle cx="300" cy="180" r="2.4" fill="#fffefd" opacity=".85"/><circle cx="560" cy="50" r="1.4" fill="#fffefd" opacity=".85"/><circle cx="640" cy="130" r="1.9" fill="#fffefd" opacity=".85"/><circle cx="120" cy="260" r="1.4" fill="#fffefd" opacity=".85"/><circle cx="300" cy="420" r="2.4" fill="#fffefd" opacity=".85"/><circle cx="420" cy="30" r="1.4" fill="#fffefd" opacity=".85"/>
  <g transform="translate(260 120) scale(1.4)">
      <rect x="24" y="44" width="152" height="130" rx="18" fill="#fffefd"/>
      <rect x="24" y="44" width="152" height="34" rx="18" fill="#ffd166"/>
      <rect x="44" y="104" width="20" height="46" rx="4" fill="#152a3f"/>
      <rect x="76" y="90" width="20" height="60" rx="4" fill="#152a3f"/>
      <rect x="108" y="76" width="20" height="74" rx="4" fill="#152a3f"/>
      <rect x="140" y="60" width="20" height="90" rx="4" fill="#152a3f"/>
  </g>
  <rect y="430" width="720" height="50" fill="#0c0e22" opacity=".35"/>
</svg>
